PathFileType	4	(X/Y/Z)	s07c0102.trc
DataRate	CameraRate	NumFrames	NumMarkers	Units	OrigDataRate	OrigDataStartFrame	OrigNumFrames
200	200	6	48	mm	200	1000	2000
Frame#	Time	racr			lacr			c7			jug			rlel			rdr			llel			ldr			s2			lic			ric			lasi			rasi			rpsi			lpsi			rgt			lgt			rth1			rth2			rth3			rth4			rlfc			rmfc			rsh1			rsh2			rsh3			rsh4			rlmal			rcal			rtoe			rmt5			lth1			lth2			lth4			lth3			llfc			lmfc			lsh1			lsh2			lsh3			lsh4			llmal			lcal			ltoe			lmt5			SBIKE			LBIKE			RBIKE			
		X1	Y1	Z1	X2	Y2	Z2	X3	Y3	Z3	X4	Y4	Z4	X5	Y5	Z5	X6	Y6	Z6	X7	Y7	Z7	X8	Y8	Z8	X9	Y9	Z9	X10	Y10	Z10	X11	Y11	Z11	X12	Y12	Z12	X13	Y13	Z13	X14	Y14	Z14	X15	Y15	Z15	X16	Y16	Z16	X17	Y17	Z17	X18	Y18	Z18	X19	Y19	Z19	X20	Y20	Z20	X21	Y21	Z21	X22	Y22	Z22	X23	Y23	Z23	X24	Y24	Z24	X25	Y25	Z25	X26	Y26	Z26	X27	Y27	Z27	X28	Y28	Z28	X29	Y29	Z29	X30	Y30	Z30	X31	Y31	Z31	X32	Y32	Z32	X33	Y33	Z33	X34	Y34	Z34	X35	Y35	Z35	X36	Y36	Z36	X37	Y37	Z37	X38	Y38	Z38	X39	Y39	Z39	X40	Y40	Z40	X41	Y41	Z41	X42	Y42	Z42	X43	Y43	Z43	X44	Y44	Z44	X45	Y45	Z45	X46	Y46	Z46	X47	Y47	Z47	X48	Y48	Z48	
1000	5.0000	500.377302	1376.240633	-120.130276	475.377210	1396.587904	-373.307050	448.438973	1437.104612	-241.650890	413.282538	1291.839022	-253.267145	497.462037	1067.306386	51.177940	716.057248	914.247422	-65.007116	500.983111	1089.228388	-534.409296	718.991996	911.866931	-428.974127	-136.603835	1203.200868	-220.516902	0.370590	1289.017860	-361.649135	50.959589	1224.298858	-85.295425	35.424842	1211.423495	-354.491753	63.167673	1178.563766	-106.278496	-103.350840	1235.821316	-166.788393	-109.240682	1263.236550	-268.590409	-4.737879	1092.216553	-53.863167	-35.562223	1132.131884	-413.447534	118.534186	996.669471	-60.766947	192.435860	950.121158	-70.731647	235.891134	876.643556	-70.272513	215.771264	974.026566	-87.396426	310.815619	761.631625	-100.034389	294.473411	746.715647	-204.082669	218.573859	654.536980	-74.496528	181.542021	575.026857	-87.588640	111.394405	523.101424	-81.929760	195.236785	565.209327	-125.617472	21.274440	420.986170	-78.114102	-50.734140	440.503469	-109.824076	123.198011	207.306664	-127.232404	49.432331	245.389969	-56.624970	65.179357	1048.030533	-420.095652	150.476771	1024.605310	-420.112669	168.621788	1055.458596	-412.070525	213.331531	961.777526	-415.301458	352.894553	851.801999	-382.166490	345.144675	828.786436	-286.697893	306.225959	708.063009	-406.823149	299.598730	623.949175	-388.708058	252.746920	547.632463	-398.025297	301.738050	625.869956	-346.702605	200.953662	421.981977	-402.010199	135.907199	368.962663	-370.905843	422.463605	412.767454	-365.837478	348.561777	369.988160	-431.209645	-263.365276	970.529461	-237.823107	-83.473884	78.845735	-437.859721	-83.412107	78.762933	-40.308549	
1001	5.0050	498.444792	1378.342715	-118.087206	476.513916	1398.116959	-371.910981	447.815326	1439.049586	-239.727513	412.922797	1293.747983	-251.785331	497.014909	1067.764439	50.621670	715.909398	914.430388	-65.128101	503.132427	1091.487579	-534.656325	719.202754	911.900627	-429.045249	-136.522053	1202.122666	-222.492814	0.960182	1287.259497	-364.136655	50.450481	1224.393852	-87.154171	35.755372	1209.552882	-356.544397	63.071227	1179.074252	-108.188393	-103.672944	1234.937810	-168.908067	-109.266864	1261.950833	-271.257886	-3.676347	1093.177229	-55.045896	-35.419228	1129.337361	-414.828190	121.768353	1001.152540	-61.717725	196.676116	956.195334	-71.714057	241.788034	883.623411	-70.779924	219.293643	980.559919	-87.888759	317.732186	769.282659	-100.508373	302.194712	753.917694	-203.812256	224.712283	663.149013	-74.731882	186.981255	583.987876	-87.533017	116.422153	532.729830	-81.722112	201.199127	573.760724	-124.889254	25.903022	430.924562	-77.877852	-45.245249	453.560248	-109.861242	119.520369	213.753116	-127.077783	47.103243	254.508569	-56.680787	63.617121	1042.748667	-421.205683	148.284487	1017.269747	-421.555302	167.248118	1047.653114	-414.021182	209.625560	952.859249	-416.267980	347.324630	841.366719	-383.506391	338.780360	816.947607	-288.316668	302.828959	697.243516	-407.816735	297.487459	613.165912	-389.465478	252.323000	536.224439	-399.290218	299.013830	615.242134	-347.419852	201.922680	408.813430	-402.278485	137.737615	354.844784	-370.937578	423.616920	403.234556	-365.938874	350.397363	359.209249	-431.121280	-263.373737	970.553136	-237.966892	-83.474491	78.850582	-437.843827	-83.423523	78.777224	-40.309224	
1002	5.0100	496.530868	1380.633274	-116.103766	477.572708	1399.938212	-370.566475	446.958833	1441.329659	-238.017266	412.533237	1295.953506	-250.608536	496.659719	1068.549550	50.163876	716.047476	914.523232	-65.526841	505.606397	1094.093982	-534.660520	719.573491	911.980294	-429.204741	-136.374224	1201.190541	-224.687530	1.720807	1285.501004	-366.958959	49.727071	1224.751135	-88.921425	36.324497	1207.884431	-358.619644	62.980160	1179.968770	-110.122291	-104.005824	1234.278826	-171.179418	-109.306479	1260.803670	-274.091893	-2.513578	1094.427030	-56.294105	-35.039210	1126.821269	-416.293433	125.006794	1005.502527	-62.396572	200.780341	962.113075	-72.553516	247.482160	890.685278	-71.229444	222.789241	987.058842	-88.894728	324.592103	777.272656	-101.080321	309.995403	760.917905	-204.913045	230.880714	671.909460	-75.046997	192.638563	592.831122	-87.462926	121.782759	542.130610	-81.630407	207.229121	582.005381	-124.492843	31.031298	440.645259	-77.684552	-39.471747	466.373564	-110.043944	116.745576	220.817599	-126.533542	45.511622	263.837419	-56.542814	62.273166	1038.297458	-422.557358	146.213823	1010.520586	-422.952646	166.086125	1040.617588	-415.834800	205.852185	944.599103	-417.408733	341.728598	831.287159	-384.773959	332.532476	808.423293	-289.374564	299.439752	687.112761	-409.232142	295.022633	602.949670	-390.246325	250.507875	524.999394	-399.130017	296.052207	605.231977	-348.102333	202.287363	396.315989	-401.903196	139.060081	341.516853	-370.867998	424.360144	393.267154	-365.842944	351.702792	348.375412	-431.017373	-263.287095	970.668081	-238.418681	-83.484507	78.844030	-437.851948	-83.441118	78.803841	-40.313840	
1003	5.0150	494.473136	1383.205607	-113.937887	478.699835	1401.874980	-369.087081	445.937291	1444.002842	-236.266994	411.924528	1298.569580	-249.405111	496.561296	1069.372761	49.433185	716.166978	914.801708	-65.768074	508.156527	1096.565223	-533.784722	719.971301	912.093570	-429.366271	-136.189409	1200.486357	-227.021881	2.428344	1284.166285	-369.822308	48.930303	1225.397411	-90.635839	37.107148	1206.509471	-360.858461	62.879801	1181.014111	-112.014020	-104.622284	1234.008273	-173.247776	-109.393459	1259.887285	-277.003133	-1.385405	1095.968980	-57.515101	-34.549252	1124.701628	-417.750064	128.002816	1009.738446	-62.734826	204.622938	968.294999	-72.919505	252.979408	897.864777	-71.623677	225.941197	993.347591	-89.945373	331.509331	785.758843	-101.064264	316.925435	768.440901	-205.540786	237.079038	680.659095	-75.440643	198.433857	601.755371	-87.582868	127.411433	551.330339	-81.675936	213.246547	590.550557	-124.420254	36.501303	450.470391	-77.475977	-32.467449	478.544188	-110.565835	115.662338	228.251080	-125.930176	44.454392	273.324296	-56.665097	61.118602	1034.505507	-424.139932	144.300707	1004.521902	-424.362928	164.949556	1033.895027	-417.471822	202.162433	937.074542	-418.741345	335.801517	821.596740	-386.198596	326.554498	799.012776	-291.199359	295.379363	677.122352	-410.293119	292.237187	593.466110	-391.300052	248.915880	514.173862	-399.819044	292.834326	595.363676	-348.920973	202.420194	384.403550	-402.114340	139.871616	328.808618	-370.848446	424.484071	382.073972	-363.645452	352.486352	337.489999	-430.877865	-263.332123	970.686626	-238.532899	-83.487697	78.855593	-437.847737	-83.422464	78.797327	-40.348756	
1004	5.0200	492.370122	1386.149244	-111.560533	479.564749	1404.053041	-367.074853	444.773855	1447.084234	-234.742768	411.025949	1301.608892	-248.187731	496.508190	1070.592954	48.774904	716.315668	915.070838	-66.039940	510.946953	1099.516197	-533.243360	720.255960	912.142904	-429.400355	-135.957691	1199.947607	-229.436917	3.230562	1282.954053	-372.740426	48.071630	1226.366878	-92.402963	38.038692	1205.436595	-362.934299	62.736573	1182.433754	-113.902351	-104.917050	1233.714670	-175.862667	-109.212525	1259.071359	-280.129481	-0.391290	1097.884220	-58.771935	-33.856569	1122.851679	-419.262573	130.683835	1014.265030	-62.504892	208.163177	974.420046	-73.231121	258.241851	905.152326	-71.908774	228.632666	999.851597	-90.836296	337.810752	794.452835	-101.819654	323.348729	775.804062	-205.940165	243.333695	689.432887	-75.924880	204.389088	610.441077	-87.752240	133.062067	560.657780	-81.778594	219.284439	599.232636	-124.472885	42.292883	460.170315	-77.311610	-25.536589	490.680060	-110.839470	114.256811	235.032777	-126.032644	44.032188	282.983576	-56.735838	60.105774	1031.230655	-425.864856	142.395434	999.007419	-426.005095	163.859403	1027.837190	-419.103791	198.458475	930.020507	-420.210509	329.653022	812.350831	-388.405472	320.359680	789.625311	-292.966265	290.880779	667.234058	-411.526714	288.782171	583.291717	-391.802572	246.841261	503.695979	-400.568417	289.317935	585.687255	-349.782813	202.301427	372.925638	-402.460965	140.133738	316.727397	-370.864680	424.693504	372.532697	-365.314075	352.737404	326.563122	-430.698584	-263.468663	970.676656	-238.356026	-83.479282	78.878839	-437.851510	-83.433923	78.824411	-40.348066	
1005	5.0250	490.163848	1389.157079	-109.184304	480.293905	1406.580552	-364.696379	443.490756	1450.271294	-233.234868	410.164702	1304.727658	-247.079062	496.446943	1072.104750	48.197888	716.505872	915.365116	-66.413057	513.704643	1102.498080	-532.472935	720.519798	912.196410	-429.438300	-135.562237	1199.656051	-232.018940	4.163542	1282.039091	-375.643757	47.106978	1227.662112	-94.126095	39.198323	1204.671770	-364.919938	62.647483	1184.043099	-115.802078	-105.128050	1233.729752	-178.647713	-108.897638	1258.374753	-283.345714	0.508065	1100.049174	-59.961321	-33.026178	1121.272296	-420.769422	132.944092	1018.598354	-62.766278	211.326010	980.591602	-73.763282	263.259492	912.471787	-72.159052	230.930997	1006.395537	-91.821068	344.501899	803.105398	-102.663117	331.198328	785.458095	-207.123162	249.605757	698.234606	-76.459575	210.346082	619.512376	-88.109183	139.219229	569.769174	-81.915319	225.262641	607.802324	-124.623326	48.243089	469.804754	-77.248084	-18.433458	502.472827	-111.076863	112.335926	242.704652	-125.717979	44.272668	292.642386	-56.885314	59.140345	1028.369919	-427.680009	140.574224	993.949983	-427.729108	162.758339	1022.166083	-420.675091	194.672750	923.449865	-421.823446	322.835918	802.377657	-388.855642	315.007067	780.666973	-295.151880	285.807090	657.443894	-412.731932	285.011598	573.513164	-392.958695	244.171741	493.141460	-401.381140	285.362368	575.924985	-350.963980	201.725613	361.620512	-402.775235	139.762522	305.170136	-370.993875	424.092179	361.904963	-365.306944	352.441550	315.620482	-430.488117	-263.449269	970.720178	-238.570386	-83.474172	78.869551	-437.874245	-83.416118	78.856310	-40.364358	
